<?xml version="1.0" encoding="UTF-8" standalone="no"?>
<svg
   xmlns:dc="http://purl.org/dc/elements/1.1/"
   xmlns:cc="http://creativecommons.org/ns#"
   xmlns:rdf="http://www.w3.org/1999/02/22-rdf-syntax-ns#"
   xmlns:svg="http://www.w3.org/2000/svg"
   xmlns="http://www.w3.org/2000/svg"
   xmlns:xlink="http://www.w3.org/1999/xlink"
   xmlns:sodipodi="http://sodipodi.sourceforge.net/DTD/sodipodi-0.dtd"
   xmlns:inkscape="http://www.inkscape.org/namespaces/inkscape"
   width="640"
   height="640"
   viewBox="0 0 640.00004 639.99999"
   id="svg2"
   version="1.1"
   sodipodi:docname="bringrss_logo.svg"
   inkscape:version="0.92.3 (2405546, 2018-03-11)"
   inkscape:export-filename="D:\Git\bringrss\frontends\bringrss_flask\static\favicon.png"
   inkscape:export-xdpi="4.8000002"
   inkscape:export-ydpi="4.8000002">
  <sodipodi:namedview
     pagecolor="#ffffff"
     bordercolor="#666666"
     borderopacity="1"
     objecttolerance="10"
     gridtolerance="10"
     guidetolerance="10"
     inkscape:pageopacity="0"
     inkscape:pageshadow="2"
     inkscape:window-width="1920"
     inkscape:window-height="1019"
     id="namedview32"
     showgrid="false"
     inkscape:zoom="1"
     inkscape:cx="434.56525"
     inkscape:cy="378.58395"
     inkscape:window-x="-8"
     inkscape:window-y="-8"
     inkscape:window-maximized="1"
     inkscape:current-layer="svg2" />
  <defs
     id="defs4">
    <linearGradient
       id="linearGradient4499">
      <stop
         style="stop-color:#f31010;stop-opacity:1"
         offset="0"
         id="stop4501" />
      <stop
         style="stop-color:#ef4646;stop-opacity:1"
         offset="1"
         id="stop4503" />
    </linearGradient>
    <linearGradient
       id="linearGradient4489">
      <stop
         style="stop-color:#1d8f0e;stop-opacity:1"
         offset="0"
         id="stop4491" />
      <stop
         style="stop-color:#2fee15;stop-opacity:1"
         offset="1"
         id="stop4493" />
    </linearGradient>
    <marker
       orient="auto"
       refY="0"
       refX="0"
       id="Tail"
       style="overflow:visible">
      <g
         id="g4180"
         transform="scale(-1.2,-1.2)"
         style="fill:#74440c;fill-opacity:1;stroke:#000000;stroke-opacity:1">
        <path
           id="path4182"
           d="M -3.8048674,-3.9585227 0.54352094,0"
           style="fill:#74440c;fill-opacity:1;fill-rule:evenodd;stroke:#000000;stroke-width:0.80000001;stroke-linecap:round;stroke-opacity:1" />
        <path
           id="path4184"
           d="M -1.2866832,-3.9585227 3.0617053,0"
           style="fill:#74440c;fill-opacity:1;fill-rule:evenodd;stroke:#000000;stroke-width:0.80000001;stroke-linecap:round;stroke-opacity:1" />
        <path
           id="path4186"
           d="M 1.3053582,-3.9585227 5.6537466,0"
           style="fill:#74440c;fill-opacity:1;fill-rule:evenodd;stroke:#000000;stroke-width:0.80000001;stroke-linecap:round;stroke-opacity:1" />
        <path
           id="path4188"
           d="M -3.8048674,4.1775838 0.54352094,0.21974226"
           style="fill:#74440c;fill-opacity:1;fill-rule:evenodd;stroke:#000000;stroke-width:0.80000001;stroke-linecap:round;stroke-opacity:1" />
        <path
           id="path4190"
           d="M -1.2866832,4.1775838 3.0617053,0.21974226"
           style="fill:#74440c;fill-opacity:1;fill-rule:evenodd;stroke:#000000;stroke-width:0.80000001;stroke-linecap:round;stroke-opacity:1" />
        <path
           id="path4192"
           d="M 1.3053582,4.1775838 5.6537466,0.21974226"
           style="fill:#74440c;fill-opacity:1;fill-rule:evenodd;stroke:#000000;stroke-width:0.80000001;stroke-linecap:round;stroke-opacity:1" />
      </g>
    </marker>
    <linearGradient
       xlink:href="#linearGradient4489"
       id="linearGradient4495"
       x1="280.82242"
       y1="1056.675"
       x2="36.084953"
       y2="669.78662"
       gradientUnits="userSpaceOnUse"
       gradientTransform="matrix(1.3511769,0,0,1.3511769,73.997383,-786.40284)" />
    <linearGradient
       xlink:href="#linearGradient4499"
       id="linearGradient4505"
       x1="336.3808"
       y1="1003.8561"
       x2="105.84174"
       y2="647.27222"
       gradientUnits="userSpaceOnUse"
       gradientTransform="matrix(1.3511769,0,0,1.3511769,73.996343,-786.40298)" />
    <linearGradient
       id="linearGradient4361">
      <stop
         id="stop4363"
         offset="0"
         style="stop-color:#4d4d4d;stop-opacity:1" />
      <stop
         id="stop4365"
         offset="1"
         style="stop-color:#000000;stop-opacity:0;" />
    </linearGradient>
    <linearGradient
       gradientTransform="matrix(0.8225722,0,0,1.3309496,35.485561,-282.08894)"
       gradientUnits="userSpaceOnUse"
       y2="699.85175"
       x2="204.01379"
       y1="1037.2178"
       x1="315.47162"
       id="linearGradient4367"
       xlink:href="#linearGradient4361" />
    <linearGradient
       xlink:href="#linearGradient4499"
       id="linearGradient4505-3"
       x1="336.3808"
       y1="1003.8561"
       x2="105.84174"
       y2="647.27222"
       gradientUnits="userSpaceOnUse"
       gradientTransform="matrix(1.3511769,0,0,1.3511769,73.996343,-786.40298)" />
    <linearGradient
       xlink:href="#linearGradient4489"
       id="linearGradient4495-0"
       x1="280.82242"
       y1="1056.675"
       x2="36.084953"
       y2="669.78662"
       gradientUnits="userSpaceOnUse"
       gradientTransform="matrix(1.3511769,0,0,1.3511769,73.997383,-786.40284)" />
    <linearGradient
       xlink:href="#linearGradient4499"
       id="linearGradient4505-3-9"
       x1="336.3808"
       y1="1003.8561"
       x2="105.84174"
       y2="647.27222"
       gradientUnits="userSpaceOnUse"
       gradientTransform="matrix(1.220263,0,0,1.220263,66.826923,-710.20939)" />
    <linearGradient
       xlink:href="#linearGradient4489"
       id="linearGradient4495-0-1"
       x1="280.82242"
       y1="1056.675"
       x2="36.084953"
       y2="669.78662"
       gradientUnits="userSpaceOnUse"
       gradientTransform="matrix(1.220263,0,0,1.220263,66.827863,-710.20926)" />
  </defs>
  <metadata
     id="metadata7">
    <rdf:RDF>
      <cc:Work
         rdf:about="">
        <dc:format>image/svg+xml</dc:format>
        <dc:type
           rdf:resource="http://purl.org/dc/dcmitype/StillImage" />
        <dc:title />
      </cc:Work>
    </rdf:RDF>
  </metadata>
  <rect
     style="opacity:1;fill:#f78422;fill-opacity:1;stroke:none;stroke-width:0.37795278;stroke-linecap:butt;stroke-linejoin:miter;stroke-miterlimit:4;stroke-dasharray:none;stroke-dashoffset:0;stroke-opacity:1;paint-order:stroke fill markers"
     id="rect887"
     width="640"
     height="640"
     x="0"
     y="0"
     rx="119.34189"
     ry="119.34189" />
  <path
     style="opacity:1;fill:#ffffff;fill-opacity:1;stroke:none;stroke-width:20.10000229;stroke-linecap:butt;stroke-linejoin:miter;stroke-miterlimit:4;stroke-dasharray:none;stroke-dashoffset:0;stroke-opacity:1;paint-order:stroke fill markers"
     d="m 335.77933,23.582737 c -6.41617,-0.124663 -12.82554,0.589814 -19.13164,2.096179 -5.93331,1.605955 -7.09128,1.756569 -12.88343,3.982733 -2.17739,0.836867 -4.41921,1.568861 -6.44975,2.71697 -28.62672,16.185855 -60.14289,30.636638 -86.04805,51.861552 -12.65689,11.784751 -24.04229,24.814809 -32.86966,39.765559 -5.76672,10.03406 -11.06043,20.33404 -15.47411,30.99652 -4.20068,-13.48676 -8.47958,-26.95005 -13.11453,-40.29497 -2.57417,-7.62142 -5.31673,-15.190311 -7.78271,-22.845638 L 69.406368,132.7747 c 4.095614,6.61739 6.81395,13.98914 9.755279,21.16599 5.410468,13.04661 10.401027,26.26422 15.261784,39.5237 6.942739,19.67206 12.672139,39.72933 18.408719,59.77596 6.98717,24.92417 12.60777,50.20355 18.33885,75.43818 5.81987,26.48044 11.98635,52.88566 18.52431,79.19783 3.91924,15.38285 8.24364,30.65144 12.73025,45.87401 -8.43428,5.90868 -15.96911,13.12438 -22.74621,20.8086 -1.97243,2.50287 -4.041,4.93116 -5.91498,7.50859 -8.95801,12.32076 -15.70741,26.26419 -19.54013,41.00713 -0.54793,2.79685 -1.24275,5.56855 -1.64469,8.39008 -1.93351,13.57206 -0.34681,26.48115 5.58981,38.88138 3.10247,5.51711 4.18689,7.997 8.23153,12.94524 6.81273,8.33476 15.64885,14.65439 25.44165,19.00802 6.82965,2.63718 9.65742,3.97761 16.8581,5.72954 13.10806,3.18921 26.66231,3.91763 40.08265,2.91048 9.0204,-1.03293 13.3517,-1.36898 22.3404,-3.04753 16.27976,-3.04009 32.12975,-8.07715 47.40047,-14.45016 38.10072,-17.23349 11.6807,-4.83549 88.09316,-48.78449 15.72716,-9.04556 30.55591,-19.6273 44.44161,-31.28946 3.43258,-3.00064 6.93571,-5.92111 10.29815,-9.00012 7.8592,-7.19678 15.29543,-14.8475 22.2786,-22.89133 2.49284,0.74288 4.98342,1.49631 7.47904,2.23055 29.62167,7.20993 60.26237,16.947 86.23908,12.01265 28.75314,-5.63974 41.58867,-23.19542 64.7799,-49.02096 -24.09041,3.88227 -25.28614,6.14379 -39.56398,4.07141 -19.75113,-2.27465 -28.91029,-5.13511 -48.09135,-10.45934 -12.0913,-3.35443 -24.13461,-6.86355 -36.15366,-10.45669 5.97731,-12.31352 10.72033,-25.21598 13.75681,-38.57769 1.63019,-8.77055 2.42841,-11.71594 3.09591,-20.59092 0.99986,-13.29417 -0.015,-26.66881 -2.81641,-39.69296 -0.76769,-3.17949 -1.42816,-6.38669 -2.30579,-9.53761 -4.37621,-15.71119 -11.37666,-30.55493 -19.90562,-44.41744 -1.78725,-2.67648 -3.50512,-5.40086 -5.36138,-8.02996 -8.8919,-12.5939 -19.34826,-23.92865 -31.03415,-33.97955 -13.06323,-10.39859 -26.56913,-19.65587 -42.45834,-25.24819 -2.47038,-0.82966 -4.91407,-1.74533 -7.41184,-2.48855 -11.77857,-3.50472 -24.2752,-4.99169 -36.52722,-4.11979 -5.50985,0.40113 -10.95155,0.97743 -16.35556,1.76025 4.01214,-3.56041 7.89957,-7.25991 11.61227,-11.15274 9.82996,-10.35427 19.13186,-21.23335 26.99231,-33.18408 8.16574,-12.69722 15.62958,-25.92277 20.37055,-40.32719 4.05793,-13.86927 6.48569,-26.969598 4.39392,-41.472066 -0.95423,-5.147087 -1.30544,-7.865816 -2.83791,-12.867285 -2.35617,-7.689718 -6.16353,-14.76219 -11.12589,-21.08001 -3.09991,-3.679033 -4.19334,-5.27639 -7.8499,-8.425021 -5.72175,-4.926994 -12.58409,-8.088848 -19.70406,-10.429822 -1.84665,-0.423876 -3.67382,-0.936652 -5.53872,-1.271133 -3.83285,-0.687439 -7.68466,-1.064711 -11.53436,-1.139466 z M 273.9045,71.010074 c 0.77229,4.8e-5 1.60047,0.01576 2.48587,0.04848 4.34562,0.113535 6.04326,0.491946 10.31424,1.120638 6.28619,1.40377 12.46353,3.734512 17.65625,7.632223 3.28927,2.46898 4.17447,3.719232 6.9604,6.753458 7.5632,8.835868 10.40465,18.635457 12.42118,29.840937 1.4237,13.00012 -1.56811,25.59641 -5.74567,37.80106 -5.15302,13.66103 -12.58068,26.22032 -20.97789,38.10203 -8.17198,11.70298 -17.93626,22.0928 -28.09412,32.06343 -4.78094,4.76369 -9.90524,9.11543 -15.21073,13.24085 -8.64167,5.43577 -18.23333,11.46489 -30.30586,18.42217 -0.98555,0.56795 -1.95354,1.17306 -2.87823,1.8355 -0.79333,0.56834 -1.51222,1.23446 -2.26817,1.85163 -1.13221,1.2254 -2.66819,2.22258 -2.01555,4.30521 0.35342,1.12778 2.76823,7.68019 5.50918,8.77707 0.51028,0.20421 1.09819,-0.20942 1.5775,-0.47835 8.226,-4.61553 16.4291,-9.27571 24.63547,-13.92615 11.42689,-4.12246 23.42548,-6.28065 35.44418,-7.79615 11.7838,-1.3906 23.74596,-0.8644 35.3152,1.83012 2.42523,0.56486 4.809,1.29907 7.21298,1.94837 15.31167,4.53044 28.71237,13.09202 41.40487,22.52852 11.50279,9.2686 21.74208,19.95455 30.41874,31.91025 1.81074,2.49503 3.48602,5.08453 5.22971,7.62686 8.3234,13.14556 14.77846,27.36864 18.79033,42.41533 0.79773,2.9919 1.3997,6.03472 2.09886,9.05118 2.5015,12.39672 3.25697,25.06657 1.99942,37.6586 -0.34177,3.42232 -0.70287,5.90247 -1.1099,8.27453 -14.88525,-4.14699 -29.87484,-7.90608 -45.01941,-11.01299 -22.00764,-4.5121 -44.19757,-8.84684 -66.74709,-9.10494 -3.54071,0.0209 -7.08514,-0.0708 -10.62333,0.0644 -16.75624,0.64134 -33.53934,3.34851 -49.30582,9.14258 -7.28313,2.94585 -11.69845,4.73527 -15.26177,6.25895 -3.12417,-15.46708 -6.23669,-30.93467 -9.22587,-46.42761 -3.03695,-16.73756 -6.65962,-33.37088 -9.15062,-50.20342 -1.30142,-8.79416 -2.43892,-18.33892 -3.53662,-27.16431 -1.71888,-16.65116 -3.26488,-33.38357 -3.57963,-50.13354 -0.16476,-8.76878 0.17379,-14.532 0.49988,-23.27831 1.08935,-14.85353 2.68516,-29.69922 5.75371,-44.28845 2.02805,-9.64213 2.75111,-11.60359 5.4178,-21.05581 4.01192,-13.07002 9.24974,-25.74752 15.73747,-37.78493 3.8397,-7.12425 5.57109,-9.599687 9.86816,-16.390485 8.39278,-12.066931 16.25343,-20.762893 16.25343,-20.762893 -2e-5,0 2.64547,-0.696454 8.05145,-0.696036 z M 254.93143,439.15777 c 20.93565,-0.13045 41.63134,3.46999 62.1382,7.37694 23.11724,4.45441 45.87242,10.5202 68.44554,17.15637 6.33429,1.95777 12.66893,3.91164 19.00262,5.86931 -3.14465,5.4516 -6.25062,10.1179 -9.92996,15.84225 -9.78679,13.83067 -20.79909,26.80136 -33.00133,38.56428 -8.0853,7.79418 -11.42514,10.33915 -20.05075,17.57294 -20.29077,11.84009 -28.02193,15.05704 -49.64712,20.09104 -9.21126,1.94952 -12.21631,2.15912 -21.46163,3.36463 -8.34622,0.83572 -16.76724,0.97559 -25.11113,0.20693 10.1372,-5.47396 20.27353,-10.94875 30.4107,-16.42272 -0.16324,-0.14727 -0.29722,-0.28007 -0.44074,-0.41657 0.0557,-0.0309 0.11091,-0.063 0.16663,-0.094 -3.00707,-5.6947 -5.19033,-11.82212 -7.26674,-17.90888 -4.71355,-13.48798 -8.80955,-27.18576 -12.56097,-40.9695 -4.36577,-16.49538 -8.06241,-33.15606 -11.60151,-49.84601 2.2388,-0.10964 4.47992,-0.19911 6.71852,-0.31173 1.39786,-0.0428 2.79396,-0.0666 4.18967,-0.0751 z"
     id="path1016"
     inkscape:connector-curvature="0"
     sodipodi:nodetypes="scsccccccccccccccccccccscscscsccccccccccscccccccccccscccsssccccccccccccscccccccscscccccccccscccscscccsccccscccccccccccscc"
     inkscape:export-filename="D:\Git\bringrss\frontends\bringrss_flask\static\path1016.png"
     inkscape:export-xdpi="4.8000002"
     inkscape:export-ydpi="4.8000002" />
</svg>
